<svg width="81" height="56" viewBox="0 0 81 56" fill="none" xmlns="http://www.w3.org/2000/svg">
<path d="M39.4545 54.0943L37.5248 13.6301C37.4895 12.887 37.9671 12.26 38.5698 12.26H42.4283C43.031 12.26 43.5086 12.887 43.4734 13.6301L41.5437 54.0943C41.4679 55.718 39.532 55.718 39.4545 54.0943Z" fill="url(#paint0_linear_1_210)"/>
<path d="M40.4995 10.0047C43.1546 10.0047 45.307 7.83849 45.307 5.1663C45.307 2.49412 43.1546 0.327881 40.4995 0.327881C37.8444 0.327881 35.692 2.49412 35.692 5.1663C35.692 7.83849 37.8444 10.0047 40.4995 10.0047Z" fill="url(#paint1_radial_1_210)"/>
<path d="M43.5835 13.81H37.4155C36.7828 13.81 36.27 13.2938 36.27 12.6571C36.27 12.0204 36.7828 11.5043 37.4155 11.5043H43.5835C44.2161 11.5043 44.729 12.0204 44.729 12.6571C44.729 13.2938 44.2161 13.81 43.5835 13.81Z" fill="#00868A"/>
<path d="M80.5308 24.6094L51.9791 13.3771C51.7121 13.2716 51.4072 13.3283 51.2002 13.5279C48.4131 16.2131 44.2541 17.0325 41.1261 17.2321C40.9172 17.2454 40.7084 17.2525 40.4996 17.2525V26.0194C42.5051 26.0194 44.5114 26.6269 46.2323 27.8409C47.5637 28.7801 48.8537 29.7449 49.9895 30.6211C52.6514 32.6732 56.1161 33.3489 59.3481 32.4515C59.9587 32.2821 60.09 31.4698 59.5649 31.1141L51.0927 25.6346C50.3217 25.1122 51.0143 23.9266 51.8425 24.3514L62.8154 30.9811C62.9784 31.0645 63.1661 31.0849 63.3423 31.037L69.1182 29.4869C69.7764 29.3104 69.869 28.4094 69.261 28.1008L54.96 21.8532C54.122 21.4284 54.6807 20.155 55.5574 20.4911L73.4614 27.9855C73.6341 28.052 73.8253 28.0502 73.9971 27.9819L80.5308 25.9982C81.1564 25.7481 81.1564 24.8577 80.5308 24.6094Z" fill="url(#paint2_linear_1_210)"/>
<path d="M39.8731 17.2322C36.745 17.0318 32.586 16.2132 29.799 13.528C29.5919 13.3285 29.287 13.2717 29.02 13.3772L0.469257 24.6095C-0.156354 24.857 -0.156354 25.7482 0.468376 25.9965L7.00205 27.9803C7.17387 28.0486 7.36508 28.0504 7.53778 27.9839L25.4417 20.4894C26.3184 20.1533 26.8762 21.4268 26.0391 21.8516L11.7382 28.0991C11.1302 28.4077 11.2227 29.3087 11.8809 29.4852L17.6568 31.0354C17.833 31.0824 18.0216 31.0629 18.1837 30.9795L29.1566 24.3497C29.9849 23.9249 30.6783 25.1106 29.9065 25.6329L21.4343 31.1125C20.9091 31.4681 21.0404 32.2804 21.651 32.4498C24.8839 33.3473 28.3477 32.6715 31.0096 30.6194C32.1463 29.7433 33.4354 28.7784 34.7668 27.8393C36.4877 26.6253 38.4941 26.0178 40.4995 26.0178V17.2508C40.2907 17.2517 40.0819 17.2455 39.8731 17.2322Z" fill="url(#paint3_linear_1_210)"/>
<path d="M38.4421 32.8657C37.1679 32.7317 35.959 32.5987 34.7774 32.346C32.6151 31.8831 30.9814 31.0238 30.2941 29.9888C29.2905 28.4768 30.4184 26.5285 32.0503 25.3863C32.5093 25.0644 32.623 24.4295 32.3032 23.9665C31.9833 23.5045 31.3524 23.3901 30.8924 23.712C28.0437 25.7065 27.0833 28.8227 28.6085 31.1222C29.88 33.0386 32.4353 33.9307 34.3553 34.3413C34.4575 34.3635 34.5606 34.383 34.6628 34.4034C35.8013 33.8296 37.1318 33.5813 38.4659 33.3844L38.4421 32.8657Z" fill="url(#paint4_linear_1_210)"/>
<path d="M42.0415 43.6838C42.9975 43.9703 43.6293 44.3658 43.832 44.8314C43.9756 45.1613 43.8029 45.5745 43.402 45.8601C43.0257 46.1279 42.4697 46.2769 41.9172 46.2831L41.8203 48.3245C41.845 48.3245 41.8697 48.3254 41.8943 48.3254C42.8698 48.3254 43.8408 48.046 44.573 47.5255C45.7617 46.6795 46.2208 45.2358 45.6885 44.0137C45.4727 43.518 45.1273 43.0844 44.6541 42.7155C43.8892 42.9283 43.0284 43.087 42.0653 43.1917L42.0415 43.6838Z" fill="url(#paint5_linear_1_210)"/>
<path d="M47.4703 35.151C47.1222 34.8522 46.7407 34.6074 46.3353 34.4034C45.0956 34.6491 43.8285 34.783 42.6011 34.9125C42.5544 34.9178 42.5059 34.9222 42.4592 34.9275L42.4354 35.4321C43.9254 35.6583 45.2797 35.9509 46.1547 36.7029C46.6755 37.1508 46.9768 37.7494 46.9795 38.3444C46.9821 38.8455 46.7724 39.2951 46.3732 39.6462C45.5326 40.3841 44.1193 40.8816 42.164 41.1272C41.8847 41.1627 41.5948 41.192 41.2935 41.2168C41.0203 41.239 40.756 41.2673 40.5004 41.2993C39.9057 41.3738 39.3585 41.4722 38.8589 41.5963C37.805 41.8588 36.9662 42.2322 36.3467 42.7155C35.8735 43.0844 35.5281 43.5172 35.3123 44.0138C34.7809 45.2358 35.24 46.6795 36.4278 47.5255C37.1591 48.0461 38.131 48.3254 39.1065 48.3254C39.1311 48.3254 39.1558 48.3245 39.1805 48.3245L39.0835 46.2831C38.5311 46.2778 37.9751 46.1279 37.5988 45.8601C37.1979 45.5746 37.0261 45.1613 37.1697 44.8314C37.3724 44.3658 38.0042 43.9712 38.9602 43.6839C39.4069 43.55 39.9242 43.44 40.5022 43.3567C40.8062 43.3132 41.1252 43.2768 41.4609 43.2493C41.6679 43.2325 41.8688 43.2121 42.0671 43.1908C43.0302 43.0862 43.8911 42.9274 44.6559 42.7146C45.9344 42.359 46.946 41.8517 47.7082 41.1822C48.5523 40.4408 49.0149 39.429 49.0087 38.3329C48.9999 37.1437 48.4404 35.9837 47.4703 35.151Z" fill="url(#paint6_linear_1_210)"/>
<path d="M50.1066 23.7122C49.6475 23.3902 49.0158 23.5046 48.6959 23.9667C48.376 24.4287 48.4897 25.0645 48.9488 25.3864C50.5807 26.5295 51.7076 28.477 50.7049 29.989C50.0185 31.0239 48.384 31.8832 46.2217 32.3461C45.0409 32.5988 43.832 32.731 42.557 32.8658C42.5015 32.872 42.446 32.8773 42.3905 32.8835C41.7701 32.9482 41.1339 33.0156 40.4995 33.0972C40.2819 33.1256 40.0651 33.1549 39.8484 33.1868C39.621 33.2205 39.3919 33.2524 39.1628 33.2843C38.9311 33.3172 38.6994 33.35 38.4667 33.3837C37.1327 33.5805 35.8013 33.8297 34.6637 34.4026C34.2584 34.6066 33.8769 34.8513 33.5288 35.1502C32.5596 35.9838 31.9991 37.1428 31.993 38.3321C31.9868 39.4281 32.4494 40.44 33.2935 41.1814C34.0557 41.8509 35.0664 42.3582 36.3458 42.7138C36.9653 42.2305 37.8041 41.8571 38.858 41.5946L38.8359 41.1255C36.8807 40.8798 35.4673 40.3824 34.6267 39.6445C34.2276 39.2934 34.0178 38.8437 34.0205 38.3427C34.024 37.7468 34.3245 37.1491 34.8452 36.7012C35.7211 35.9492 37.0745 35.6566 38.5645 35.4304C38.8536 35.387 39.147 35.3453 39.443 35.3036C39.6765 35.2708 39.91 35.238 40.1427 35.2034C40.2607 35.1857 40.3806 35.1706 40.4995 35.1546C41.148 35.0668 41.8098 34.9941 42.4583 34.9258C42.5059 34.9205 42.5535 34.9161 42.6002 34.9108C43.8285 34.7822 45.0947 34.6474 46.3344 34.4017C46.4367 34.3813 46.5398 34.3618 46.642 34.3396C48.562 33.9291 51.1173 33.036 52.3888 31.1205C53.9149 28.8228 52.9553 25.7066 50.1066 23.7122Z" fill="url(#paint7_linear_1_210)"/>
<defs>
<linearGradient id="paint0_linear_1_210" x1="40.4998" y1="55.3124" x2="40.4998" y2="12.2607" gradientUnits="userSpaceOnUse">
<stop stop-color="#4FBFA5"/>
<stop offset="1" stop-color="#006A65"/>
</linearGradient>
<radialGradient id="paint1_radial_1_210" cx="0" cy="0" r="1" gradientUnits="userSpaceOnUse" gradientTransform="translate(39.3103 4.50102) scale(4.80728 4.8382)">
<stop stop-color="#4FBFA5"/>
<stop offset="1" stop-color="#00868A"/>
</radialGradient>
<linearGradient id="paint2_linear_1_210" x1="40.4998" y1="23.0817" x2="81.0001" y2="23.0817" gradientUnits="userSpaceOnUse">
<stop stop-color="#4FBFA5"/>
<stop offset="1" stop-color="#00868A"/>
</linearGradient>
<linearGradient id="paint3_linear_1_210" x1="-0.000391405" y1="23.0819" x2="40.4998" y2="23.0819" gradientUnits="userSpaceOnUse">
<stop stop-color="#4FBFA5"/>
<stop offset="1" stop-color="#00868A"/>
</linearGradient>
<linearGradient id="paint4_linear_1_210" x1="27.8893" y1="28.966" x2="38.467" y2="28.966" gradientUnits="userSpaceOnUse">
<stop stop-color="#4FBFA5"/>
<stop offset="1" stop-color="#00868A"/>
</linearGradient>
<linearGradient id="paint5_linear_1_210" x1="41.8201" y1="45.5202" x2="45.9074" y2="45.5202" gradientUnits="userSpaceOnUse">
<stop stop-color="#00868A"/>
<stop offset="1" stop-color="#4FBFA5"/>
</linearGradient>
<linearGradient id="paint6_linear_1_210" x1="35.0922" y1="41.3642" x2="49.0061" y2="41.3642" gradientUnits="userSpaceOnUse">
<stop stop-color="#00868A"/>
<stop offset="1" stop-color="#4FBFA5"/>
</linearGradient>
<linearGradient id="paint7_linear_1_210" x1="31.9936" y1="33.1222" x2="53.1103" y2="33.1222" gradientUnits="userSpaceOnUse">
<stop stop-color="#4FBFA5"/>
<stop offset="1" stop-color="#00868A"/>
</linearGradient>
</defs>
</svg>
